<svg width="128" height="128" viewBox="0 0 128 128" xmlns="http://www.w3.org/2000/svg">
  <defs>
    <linearGradient id="bg" x1="0%" y1="0%" x2="100%" y2="100%">
      <stop offset="0%" style="stop-color:#667eea;stop-opacity:1" />
      <stop offset="50%" style="stop-color:#764ba2;stop-opacity:1" />
      <stop offset="100%" style="stop-color:#f093fb;stop-opacity:1" />
    </linearGradient>
  </defs>
  
  <!-- 背景圆角矩形 -->
  <rect x="0" y="0" width="128" height="128" rx="20" ry="20" fill="url(#bg)"/>
  
  <!-- 扳手 -->
  <g fill="white" stroke="white" stroke-width="2">
    <!-- 扳手手柄 -->
    <path d="M 40 20 L 40 80 L 44 80 L 44 24 L 84 24 L 84 80 L 88 80 L 88 20 Z"/>
    <!-- 扳手头部 -->
    <circle cx="64" cy="20" r="8" fill="white"/>
  </g>
  
  <!-- 齿轮 -->
  <g fill="none" stroke="white" stroke-width="3">
    <!-- 齿轮外圆 -->
    <circle cx="64" cy="64" r="20"/>
    
    <!-- 齿轮齿 -->
    <g stroke-width="2">
      <line x1="44" y1="44" x2="38" y2="38"/>
      <line x1="84" y1="44" x2="90" y2="38"/>
      <line x1="84" y1="84" x2="90" y2="90"/>
      <line x1="44" y1="84" x2="38" y2="90"/>
      <line x1="44" y1="64" x2="32" y2="64"/>
      <line x1="84" y1="64" x2="96" y2="64"/>
      <line x1="64" y1="44" x2="64" y2="32"/>
      <line x1="64" y1="84" x2="64" y2="96"/>
    </g>
    
    <!-- 齿轮中心孔 -->
    <circle cx="64" cy="64" r="6" fill="white"/>
  </g>
  
  <!-- 装饰性小工具图标 -->
  <g fill="white" opacity="0.7">
    <!-- 小螺丝刀 -->
    <rect x="20" y="100" width="2" height="12" fill="white"/>
    <circle cx="21" cy="100" r="2" fill="white"/>
    
    <!-- 小锤子 -->
    <rect x="100" y="20" width="8" height="2" fill="white"/>
    <rect x="104" y="18" width="2" height="6" fill="white"/>
  </g>
</svg>
